<svg width="14" height="14" viewBox="0 0 14 14" fill="none" xmlns="http://www.w3.org/2000/svg">
<path d="M7 0C6.08075 0 5.17049 0.18106 4.32122 0.532843C3.47194 0.884626 2.70026 1.40024 2.05025 2.05025C0.737498 3.36301 0 5.14348 0 7C0 8.85651 0.737498 10.637 2.05025 11.9497C2.70026 12.5998 3.47194 13.1154 4.32122 13.4672C5.17049 13.8189 6.08075 14 7 14C8.85651 14 10.637 13.2625 11.9497 11.9497C13.2625 10.637 14 8.85651 14 7C14 6.08075 13.8189 5.17049 13.4672 4.32122C13.1154 3.47194 12.5998 2.70026 11.9497 2.05025C11.2997 1.40024 10.5281 0.884626 9.67878 0.532843C8.8295 0.18106 7.91925 0 7 0ZM7 1.4C8.48521 1.4 9.90959 1.99 10.9598 3.0402C12.01 4.09041 12.6 5.51479 12.6 7C12.6 8.48521 12.01 9.90959 10.9598 10.9598C9.90959 12.01 8.48521 12.6 7 12.6C5.51479 12.6 4.09041 12.01 3.0402 10.9598C1.99 9.90959 1.4 8.48521 1.4 7C1.4 5.51479 1.99 4.09041 3.0402 3.0402C4.09041 1.99 5.51479 1.4 7 1.4ZM3.5 5.6L7 9.1L10.5 5.6H3.5Z" fill="white"/>
</svg>
